<svg width="112" height="106" viewBox="0 0 112 106" fill="none" xmlns="http://www.w3.org/2000/svg">
<path d="M3.5 66.6688V33.3313C3.5 28.7288 7.23625 24.9925 11.8387 24.9925H100.161C104.764 24.9925 108.5 28.7288 108.5 33.3313V66.6775C108.5 71.28 104.764 75.0163 100.161 75.0163H11.8387C7.23625 75.0075 3.5 71.28 3.5 66.6688Z" fill="#424242"/>
<path d="M23.8787 62.8362C30.3591 62.8362 35.6125 57.5829 35.6125 51.1025C35.6125 44.6221 30.3591 39.3687 23.8787 39.3687C17.3984 39.3687 12.145 44.6221 12.145 51.1025C12.145 57.5829 17.3984 62.8362 23.8787 62.8362Z" fill="#4CAF50"/>
<path d="M15.6888 52.135C14.6913 51.82 14.42 48.32 16.7563 45.5113C20.2387 41.32 25.2525 41.425 25.7862 43.6563C26.53 46.78 22.575 45.5463 19.565 48.0663C17.6925 49.6413 17.2725 52.625 15.6888 52.135Z" fill="#6FD86F"/>
<path d="M56 62.8362C62.4804 62.8362 67.7338 57.5829 67.7338 51.1025C67.7338 44.6221 62.4804 39.3687 56 39.3687C49.5196 39.3687 44.2663 44.6221 44.2663 51.1025C44.2663 57.5829 49.5196 62.8362 56 62.8362Z" fill="#FFCA28"/>
<path d="M47.81 52.1438C46.8125 51.8288 46.5413 48.3288 48.8775 45.52C52.36 41.3288 57.3738 41.4337 57.9075 43.665C58.6513 46.7888 54.6963 45.555 51.6863 48.075C49.805 49.65 49.3938 52.6338 47.81 52.1438Z" fill="#FFF59D"/>
<path d="M88.1213 62.8362C94.6017 62.8362 99.855 57.5829 99.855 51.1025C99.855 44.6221 94.6017 39.3687 88.1213 39.3687C81.6409 39.3687 76.3875 44.6221 76.3875 51.1025C76.3875 57.5829 81.6409 62.8362 88.1213 62.8362Z" fill="#F44336"/>
<path d="M79.9312 52.1438C78.9337 51.8288 78.6625 48.3288 80.9987 45.52C84.4812 41.3288 89.495 41.4337 90.0287 43.665C90.7725 46.7888 86.8175 45.555 83.8075 48.075C81.9262 49.65 81.515 52.6338 79.9312 52.1438Z" fill="#FF8155"/>
<path d="M11.1738 45.4238C10.7625 46.2288 9.52001 46.1938 9.63376 44.9688C9.91376 41.985 11.6113 39.64 13.0025 38.205C15.7675 35.3 19.8275 33.6463 23.8788 33.655C27.93 33.6375 31.99 35.3 34.7638 38.1963C36.155 39.6313 38.1325 42.8338 38.1413 45.065C38.1413 46.0363 37.0388 46.2988 36.6363 45.5113C35.63 43.5513 32.515 37.155 23.8875 37.155C15.26 37.155 12.1713 43.4813 11.1738 45.4238ZM43.295 45.4238C42.8838 46.2288 41.6413 46.1938 41.755 44.9688C42.035 41.985 43.7325 39.64 45.1238 38.205C47.8888 35.3 51.9488 33.6463 56 33.655C60.0513 33.6375 64.1113 35.3 66.885 38.1963C68.2763 39.6313 70.2538 42.8338 70.2625 45.065C70.2625 46.0363 69.16 46.2988 68.7575 45.5113C67.7513 43.5513 64.6363 37.155 56.0088 37.155C47.3813 37.155 44.2925 43.4813 43.295 45.4238ZM75.4075 45.4238C74.9963 46.2288 73.7538 46.1938 73.8675 44.9688C74.1475 41.985 75.845 39.64 77.2363 38.205C80.0013 35.3 84.0613 33.6463 88.1125 33.655C92.1638 33.6375 96.2238 35.3 98.9976 38.1963C100.389 39.6313 102.366 42.8338 102.375 45.065C102.375 46.0363 101.273 46.2988 100.87 45.5113C99.8638 43.5513 96.7488 37.155 88.1213 37.155C79.4938 37.155 76.4138 43.4813 75.4075 45.4238Z" fill="#757575"/>
</svg>
